<?xml version="1.0" encoding="utf-8"?>
<!-- Generator: Adobe Illustrator 19.2.1, SVG Export Plug-In . SVG Version: 6.00 Build 0)  -->
<svg version="1.1" id="Layer_1" xmlns="http://www.w3.org/2000/svg" xmlns:xlink="http://www.w3.org/1999/xlink" x="0px" y="0px"
	 viewBox="0 0 216 18" style="enable-background:new 0 0 216 18;" xml:space="preserve">
<style type="text/css">
	.st0{fill:#AAADB1;}
</style>
<g>
	<g>
		<path class="st0" d="M0.2,17.3V0.7h2.9v16.6H0.2z"/>
		<path class="st0" d="M28,17.3V0.7H31v14.1h7.3v2.6H28z"/>
		<path class="st0" d="M46.9,9c0-5,3.5-8.6,8.5-8.6S63.9,4,63.9,9s-3.5,8.6-8.5,8.6S46.9,13.9,46.9,9z M60.9,9c0-3.4-2.2-6-5.5-6
			c-3.4,0-5.5,2.6-5.5,6c0,3.4,2.1,6,5.5,6C58.7,15,60.9,12.4,60.9,9z"/>
		<path class="st0" d="M78.5,17.3L72,0.7h3.3l5,13.5l5-13.5h3.3l-6.5,16.6H78.5z"/>
		<path class="st0" d="M98,17.3V0.7h11.4v2.6h-8.5v4.3h8.3v2.6h-8.3v4.6h8.5v2.6H98z"/>
		<path class="st0" d="M133.7,10.7V0.7h2.9v10c0,2.6,1.5,4.4,4.3,4.4c2.8,0,4.2-1.7,4.2-4.4v-10h2.9v10c0,4.1-2.4,6.9-7.2,6.9
			C136.1,17.6,133.7,14.8,133.7,10.7z"/>
		<path class="st0" d="M158.4,9c0-5.2,3.9-8.6,8.7-8.6c3.2,0,5.4,1.5,6.7,3.5l-2.4,1.3C170.5,4,169,3,167.1,3c-3.3,0-5.7,2.5-5.7,6
			s2.4,6,5.7,6c1.7,0,3.2-0.8,3.9-1.5v-2.6h-5V8.4h7.9v6.2c-1.6,1.8-4,3-6.9,3C162.3,17.6,158.4,14.2,158.4,9z"/>
		<path class="st0" d="M184.5,17.3V0.7h2.9v14.1h7.3v2.6H184.5z"/>
		<path class="st0" d="M206.4,17.3v-6.9L200,0.7h3.3l4.6,7.1l4.5-7.1h3.3l-6.4,9.7v6.9H206.4z"/>
	</g>
</g>
</svg>
