<?xml version="1.0" encoding="utf-8"?>
<!-- Generator: Adobe Illustrator 19.2.1, SVG Export Plug-In . SVG Version: 6.00 Build 0)  -->
<svg version="1.1" id="Layer_1" xmlns="http://www.w3.org/2000/svg" xmlns:xlink="http://www.w3.org/1999/xlink" x="0px" y="0px"
	 viewBox="0 0 125 125" style="enable-background:new 0 0 125 125;" xml:space="preserve">
<style type="text/css">
	.st0{fill:#E0E0E0;}
	.st1{fill:#35425B;}
	.st2{fill:#AE9261;}
</style>
<g>
	<g>
		<path class="st0" d="M38.3,76C28.2,76,18.7,72.1,11.6,65C4.4,57.8,0.5,48.3,0.5,38.3s3.9-19.6,11.1-26.7
			C26.3-3.2,50.3-3.2,65,11.5C72.1,18.7,76,28.2,76,38.3S72.1,57.8,65,65C57.8,72.1,48.4,76,38.3,76z M38.3,2.8
			c-9.1,0-18.2,3.5-25.1,10.4C6.5,19.9,2.8,28.8,2.8,38.3s3.7,18.4,10.4,25.1c13.8,13.8,36.3,13.8,50.2,0
			c6.7-6.7,10.4-15.6,10.4-25.1s-3.7-18.4-10.4-25.1C56.4,6.3,47.4,2.8,38.3,2.8z"/>
	</g>
	<g>
		<path class="st1" d="M63.2,63.2c12.2-12.2,13.2-30.7,4.6-44.8C82,17.9,97.2,22.9,108,33.7c20.5,20.5,20.5,53.8,0,74.3
			c-20.5,20.5-53.8,20.5-74.3,0C22.9,97.2,17.5,81.7,18.1,67.5C32.1,76,51.1,75.4,63.2,63.2z"/>
	</g>
	<g>
		<path class="st0" d="M70.9,124.5c-13.7,0-27.5-5.2-37.9-15.7c-20.9-20.9-20.9-55,0-75.9l0,0c20.9-20.9,55-20.9,75.9,0
			c20.9,20.9,20.9,55,0,75.9C98.4,119.3,84.6,124.5,70.9,124.5z M34.5,34.5c-20,20-20,52.6,0,72.6c20,20,52.6,20,72.6,0
			c20-20,20-52.6,0-72.6C87.2,14.5,54.6,14.5,34.5,34.5L34.5,34.5z"/>
	</g>
	<g>
		<path class="st2" d="M100.9,103l-3.3-3.3l0.8-0.8l3.3,3.3L100.9,103z M94.4,96.5l-3.3-3.3l0.8-0.8l3.3,3.3L94.4,96.5z M87.9,90
			l-3.3-3.3l0.8-0.8l3.3,3.3L87.9,90z M81.4,83.5l-3.3-3.3l0.8-0.8l3.3,3.3L81.4,83.5z M74.9,77l-3.3-3.3l0.8-0.8l3.3,3.3L74.9,77z
			 M68.4,70.5l-3.3-3.3l0.8-0.8l3.3,3.3L68.4,70.5z M61.9,64l-3.3-3.3l0.8-0.8l3.3,3.3L61.9,64z M55.4,57.5l-3.3-3.3l0.8-0.8
			l3.3,3.3L55.4,57.5z M48.9,50.9l-3.3-3.3l0.8-0.8l3.3,3.3L48.9,50.9z M42.4,44.4l-3.3-3.3l0.8-0.8l3.3,3.3L42.4,44.4z"/>
	</g>
</g>
</svg>
