<?xml version="1.0" encoding="utf-8"?>
<!-- Generator: Adobe Illustrator 19.2.1, SVG Export Plug-In . SVG Version: 6.00 Build 0)  -->
<svg version="1.1" id="Layer_1" xmlns="http://www.w3.org/2000/svg" xmlns:xlink="http://www.w3.org/1999/xlink" x="0px" y="0px"
	 viewBox="0 0 158 32" style="enable-background:new 0 0 158 32;" xml:space="preserve">
<style type="text/css">
	.st0{fill:#AAADB2;}
</style>
<g>
	<g>
		<g>
			<path class="st0" d="M19.5,27.2c-0.4-0.3-0.4-0.9-0.4-1.5c0-1,0-1.9,0-2.8v-6.4c0-1.4,0-3.2-0.6-4.6c-0.1-0.4-0.5-1.1-1.4-1.8
				c-1.7-1.3-4-1.6-6-1.6c-2.3,0-4.9,0.4-6.7,2c-2,1.8-2.2,4.3-2.2,5.1l3.9,0c0-0.2,0-0.8,0.1-1.4c0.6-2.1,2.7-2.7,4.6-2.7
				c2.7,0,3.9,0.8,4.5,2c0.3,0.6,0.3,1.4,0.3,1.5c0,0.4-0.1,0.9-0.3,1.2c-0.3,0.4-1.1,0.5-1.2,0.6c-1,0.2-2,0.4-3,0.6
				c-2,0.4-4.8,0.7-6.6,1.6c-1,0.5-1.7,1.2-2,1.5c-1.1,1.4-1.2,3.1-1.2,3.7c0,2.9,1.4,4.6,2.4,5.3c1.3,1,3.3,1.4,5,1.4
				c3.8,0,5.9-2,6.9-3.1c0,0.1,0,0.7,0.3,1.3c0.7,1.5,2.6,1.4,3,1.4h1.8v-2.8C20.3,27.6,19.8,27.5,19.5,27.2z M15.5,20.6
				c0,1.7-0.1,3.3-1.1,4.8c-1,1.5-3.1,2.3-4.9,2.3c-2.1,0-4.1-1.1-4.1-3.5c0-2.8,2.9-3.3,3.4-3.4c1-0.2,1.9-0.4,2.8-0.6
				c1-0.2,1.9-0.3,3.9-1V20.6z"/>
		</g>
		<path class="st0" d="M36.2,15.8c0-0.3,0-1.4-0.5-2.3c-0.5-1-1.7-2.1-4.1-2.1c-0.3,0-1,0-1.6,0.2c-1.3,0.3-2.3,1.3-2.3,2.7
			c0,0.6,0.1,1,0.4,1.5c0.7,1,2.1,1.3,4.3,1.9l1.3,0.4c0.3,0.1,2.8,0.8,4.2,2c1.4,1.1,2,2.8,2,4.5c0,0.6-0.1,2.2-1.2,3.7
			c-1.1,1.5-3.1,2.9-7.1,2.9c-0.5,0-3.6,0-5.6-1.3c-0.4-0.3-1.1-0.8-1.8-1.8c-0.3-0.4-0.7-1-1-2.1C23.1,25,23,24.1,23,23.4l3.6-0.4
			c0,0.3,0,1.2,0.3,2.1c0.4,1.3,1.8,3,4.9,3c1.3,0,2.9-0.4,3.8-1.5c0.4-0.5,0.6-1.1,0.6-1.8c0-0.4-0.1-1.5-1-2.1
			c-0.7-0.5-1.8-0.9-3.6-1.4l-1.2-0.4c-0.8-0.2-1.5-0.4-2.3-0.7c-2.5-1-4.1-2.5-4.1-5.4c0-2.8,1.5-4.2,2.3-4.8
			c1-0.8,2.5-1.5,5.3-1.5c2.3,0,4.7,0.5,6.4,2.3c1.7,1.8,1.7,3.8,1.7,4.7L36.2,15.8z"/>
		<path class="st0" d="M57.9,16.4c0-0.3-0.2-1.3-0.5-2c-0.5-1-1.8-2.8-4.6-2.8c-1.8,0-2.9,0.8-3.5,1.2c-1.3,1.1-2.5,3.1-2.5,6.9
			c0,3.3,0.8,5.1,1.8,6.4c0.6,0.7,1.2,1,1.5,1.2c1.1,0.5,2.3,0.5,2.8,0.5c0.9,0,1.9-0.2,2.8-0.7c2.3-1.3,2.6-4,2.7-4.6l3.8,0.4
			c-0.2,0.9-0.7,4.5-3.4,6.5c-1,0.8-3,1.7-6,1.7c-0.9,0-3.4,0-5.6-1.5c-1.3-0.9-2.9-2.3-3.8-5.7c-0.5-1.8-0.5-3.4-0.5-4.1
			c0-1,0-5.1,2.6-8.1c1.4-1.6,3.1-2.3,3.8-2.6c1.2-0.4,2.3-0.5,3.6-0.5c0.7,0,3.6,0,5.7,1.5c0.6,0.5,1.2,1,1.6,1.7
			c0.6,0.8,1.3,2,1.6,4.2L57.9,16.4z"/>
		<path class="st0" d="M79.5,30.2c-1.5,0.6-3,0.7-4.6,0.7c-0.6,0-2.2,0-3.8-0.5c-3-1-6.3-3.8-6.3-10.7c0-1,0-4.8,2.3-7.8
			c0.3-0.4,0.8-1,1.8-1.7c2.5-1.8,5.2-1.8,6.3-1.8c1.2,0,3.9,0,6.5,2c3.7,3,3.8,8,3.8,9.2C85.4,26.2,82,29.2,79.5,30.2 M81.3,17.4
			c-0.5-3.5-2.5-5.8-6.2-5.8c-1.9,0-3.1,0.7-3.7,1.2c-1.4,1.1-2.6,3.2-2.6,7c0,2.7,0.6,4.5,1.2,5.4c0.3,0.5,0.8,1.1,1.9,1.8
			c1.4,0.8,2.8,0.8,3.3,0.8c0.6,0,2.1,0,3.6-1c2.3-1.6,2.8-4.5,2.8-7.1C81.5,19.5,81.4,18.3,81.3,17.4"/>
		<rect x="89" y="1" class="st0" width="3.8" height="29.5"/>
		<path class="st0" d="M111,30.2c-1.5,0.6-3.1,0.7-4.6,0.7c-0.6,0-2.2,0-3.8-0.5c-3-1-6.3-3.8-6.3-10.7c0-1,0-4.8,2.3-7.8
			c0.3-0.4,0.8-1,1.8-1.7c2.5-1.8,5.2-1.8,6.3-1.8c1.2,0,3.9,0,6.5,2c3.7,3,3.8,8,3.8,9.2C116.9,26.2,113.5,29.2,111,30.2
			 M112.8,17.4c-0.5-3.5-2.5-5.8-6.2-5.8c-1.9,0-3.1,0.7-3.7,1.2c-1.4,1.1-2.6,3.2-2.6,7c0,2.7,0.6,4.5,1.2,5.4
			c0.3,0.5,0.8,1.1,1.9,1.8c1.4,0.8,2.8,0.8,3.3,0.8c0.6,0,2.1,0,3.6-1c2.3-1.6,2.8-4.5,2.8-7.1C113,19.5,113,18.3,112.8,17.4"/>
		<path class="st0" d="M137.5,30.5h-3.6v-2.9c-0.5,0.9-1.3,1.6-2.2,2.2c-0.8,0.5-2.1,1.1-4.3,1.1c-1.5,0-2.6-0.3-3.2-0.5
			c-1.1-0.4-3.3-1.6-3.9-4.8c-0.4-1.8-0.3-4.8-0.3-6.6V8.9h3.9v10.9c0,3,0,4.8,0.6,6.1c0.4,0.8,1.5,1.8,3.5,1.8c2,0,4-1.1,5-3
			c0.7-1.4,0.8-2.6,0.8-5.6V8.9h3.8V30.5z"/>
		<path class="st0" d="M145,12.5c0.4-0.8,0.8-1.4,1.4-2c1.3-1.3,2.7-1.8,4.5-1.8c0.4,0,0.8,0,1.7,0.1l0,3.7
			c-0.8-0.1-2.6-0.3-4.6,0.9c-0.9,0.6-2.2,1.7-2.6,4.2c-0.2,1-0.2,3-0.2,5.6v7.3h-3.8V8.9h3.6V12.5z"/>
		<rect x="152.5" y="26.3" class="st0" width="4.1" height="4.2"/>
	</g>
</g>
</svg>
