<?xml version="1.0" encoding="utf-8"?>
<!-- Generator: Adobe Illustrator 19.2.1, SVG Export Plug-In . SVG Version: 6.00 Build 0)  -->
<svg version="1.1" id="Layer_1" xmlns="http://www.w3.org/2000/svg" xmlns:xlink="http://www.w3.org/1999/xlink" x="0px" y="0px"
	 viewBox="0 0 110 110" style="enable-background:new 0 0 110 110;" xml:space="preserve">
<style type="text/css">
	.st0{fill:#AE9261;}
	.st1{fill:#E0E0E0;}
	.st2{fill:#35425B;}
</style>
<g>
	<g>
		<path class="st0" d="M55,76.7c-0.9,0-1.8-0.1-2.6-0.2l0.1-1.1c1.5,0.2,3,0.2,4.5,0.1l0.1,1.1C56.4,76.7,55.7,76.7,55,76.7z
			 M62.9,75.3l-0.4-1.1c1.4-0.5,2.7-1.2,4-2.1l0.6,1C65.8,74,64.3,74.7,62.9,75.3z M46.7,75.1c-1.5-0.6-2.9-1.4-4.1-2.3l0.7-0.9
			c1.2,0.9,2.5,1.6,3.9,2.2L46.7,75.1z M71.5,69.2l-0.9-0.8c1-1.1,1.8-2.4,2.5-3.7l1,0.5C73.4,66.6,72.5,68,71.5,69.2z M38.2,68.8
			c-1-1.2-1.9-2.6-2.6-4l1-0.5c0.7,1.3,1.5,2.6,2.4,3.8L38.2,68.8z M76.2,59.7l-1.1-0.2c0.3-1.5,0.5-3,0.5-4.5h1.2
			C76.8,56.6,76.6,58.2,76.2,59.7z M33.7,59.2c-0.3-1.4-0.4-2.8-0.4-4.2l0-0.5l1.2,0l0,0.5c0,1.3,0.1,2.7,0.4,4L33.7,59.2z
			 M75.3,51.5c-0.3-1.5-0.7-2.9-1.2-4.3l1.1-0.4c0.6,1.5,1,3,1.3,4.6L75.3,51.5z M35.3,49l-1.1-0.3c0.5-1.5,1.1-3,1.9-4.4l1,0.6
			C36.4,46.2,35.8,47.5,35.3,49z M71.3,42.4c-0.9-1.2-2-2.3-3.1-3.2l0.7-0.9c1.2,1,2.3,2.2,3.3,3.4L71.3,42.4z M40.5,40.4l-0.8-0.8
			c1.1-1.1,2.4-2.1,3.7-3l0.6,1C42.7,38.4,41.6,39.3,40.5,40.4z M63.4,36.2c-1.4-0.6-2.8-1.1-4.3-1.4l0.2-1.1
			c1.6,0.3,3.1,0.8,4.5,1.4L63.4,36.2z M49.1,35.3l-0.3-1.1c1.5-0.5,3.1-0.7,4.7-0.9l0.1,1.2C52,34.6,50.5,34.8,49.1,35.3z"/>
	</g>
	<g>
		<path class="st1" d="M55,108.9c-13.8,0-27.6-5.3-38.1-15.8C6.7,82.9,1.1,69.4,1.1,55c0-14.4,5.6-27.9,15.8-38.1l0,0
			c21-21,55.2-21,76.3,0c21,21,21,55.2,0,76.3C82.6,103.6,68.8,108.9,55,108.9z M55,3.4c-13.8,0-26.8,5.4-36.5,15.1l0,0
			C8.8,28.2,3.4,41.2,3.4,55c0,13.8,5.4,26.8,15.1,36.5c9.7,9.7,22.7,15.1,36.5,15.1c13.8,0,26.8-5.4,36.5-15.1
			c20.1-20.1,20.1-52.9,0-73C81.8,8.7,68.8,3.4,55,3.4z"/>
	</g>
	<g>
		<ellipse transform="matrix(0.7071 -0.7071 0.7071 0.7071 -48.7318 44.5615)" class="st0" cx="29.4" cy="81.1" rx="12" ry="12"/>
	</g>
	<g>
		<ellipse transform="matrix(0.7071 -0.7071 0.7071 0.7071 2.7573 65.889)" class="st2" cx="80.9" cy="29.6" rx="12" ry="12"/>
	</g>
</g>
</svg>
