<?xml version="1.0" encoding="utf-8"?>
<!-- Generator: Adobe Illustrator 19.2.1, SVG Export Plug-In . SVG Version: 6.00 Build 0)  -->
<svg version="1.1" id="Layer_1" xmlns="http://www.w3.org/2000/svg" xmlns:xlink="http://www.w3.org/1999/xlink" x="0px" y="0px"
	 viewBox="0 0 185 40" style="enable-background:new 0 0 185 40;" xml:space="preserve">
<style type="text/css">
	.st0{fill:#AAADB2;}
</style>
<g>
	<path class="st0" d="M87.7,14.4c-1.5,0-3.3,1.1-4.2,4.2c0-1-0.2-1.9-0.3-2.6c-0.1-0.5-0.2-0.9-0.3-1.2l0-0.1h-2.3v16.1h3v-6.9
		c0-4.7,1.7-6.6,5.7-6.6h0.1v-2.1l0,0C89,14.7,88.7,14.4,87.7,14.4"/>
	<path class="st0" d="M50,21.5h3.8c3.6,0,4.8,0.8,4.8,3.3c0,2.8-1.7,3.4-4.7,3.4H50V21.5z M54,12c2.7,0,3.9,1,3.9,3.3
		c0,2.4-1.2,3.5-4.1,3.5H50V12H54z M56.9,20.1c2.8-0.5,4.1-2.2,4.1-5.1c0-3.6-2.4-5.7-6.6-5.7h-7.5v21.3h7.4c5.2,0,7.5-1.8,7.5-6
		C61.7,22.1,60,20.5,56.9,20.1"/>
	<path class="st0" d="M73.7,22.3v2.1c0,2.9-2,4.5-3.9,4.5c-1.8,0-2.7-0.8-2.7-2.3v-0.2c0-1.3,0.9-1.8,3.8-2.9
		C71.9,23.3,73,22.9,73.7,22.3 M76.8,30.1c0-0.1,0-0.3,0-0.4c0-0.6,0-1.6,0-3.3v-6.1c0-3.9-2.1-6-6-6c-3.3,0-5,1.5-5.6,2.2l0,0v2.3
		l0.2-0.2c0.8-0.7,2.9-1.7,5.1-1.7c2.2,0,3.4,0.9,3.4,2.4v0.1c0,1.3-0.6,1.7-3.1,2.3l-0.2,0.1c-3.3,0.8-6.3,1.5-6.3,5v0
		c0,2.7,1.9,4.4,4.8,4.4c2.4,0,4.1-1,4.9-3c0.1,0.6,0.2,1.2,0.3,1.5c0.1,0.3,0.2,0.6,0.3,0.9l0,0.1h2.4l0-0.1
		C76.8,30.4,76.8,30.3,76.8,30.1"/>
	<path class="st0" d="M161,28.8c-2.1,0-4.6-1-4.6-5.9v-1.3c0-3.2,1.7-5.2,4.6-5.2c2.9,0,4.6,1.9,4.6,5.2v1.3
		C165.6,27.8,163.1,28.8,161,28.8 M161,14.2c-4.6,0-7.7,3.3-7.7,8.2v0c0,5.2,3,8.6,7.7,8.6c4.7,0,7.7-3.4,7.7-8.6v0
		C168.7,17.4,165.7,14.2,161,14.2"/>
	<path class="st0" d="M180.5,22.2c-0.8-0.4-1.8-0.6-2.8-0.8c-1-0.2-2-0.4-2.9-0.8c-0.7-0.3-1-0.8-1-1.7c0-1.9,1.8-2.3,3.4-2.3
		c1.9,0,3.4,0.6,4.3,1.1l0.2,0.1v-2.2l0,0c-1-0.8-2.8-1.3-4.7-1.3c-3.6,0-5.9,1.8-5.9,4.8c0,2.3,0.9,3.2,2.3,3.9
		c0.9,0.4,2.1,0.7,3.1,0.8c0.9,0.2,1.8,0.3,2.3,0.6c0.8,0.4,0.9,1.1,0.9,1.8c0,1.6-1.1,2.4-3.4,2.4c-2.7,0-3.9-0.7-5.3-1.6l-0.2-0.1
		v2.3l0,0c1.4,1.2,3.2,1.7,5.7,1.7c3.7,0,6-1.9,6-4.9C182.5,24.2,181.9,23,180.5,22.2"/>
	<path class="st0" d="M138.2,21.8c0-3.4,1.5-5.1,4.3-5.1c1.2,0,5.1,0.4,5.1,5.7V23c0,2.9-1.7,5.8-5.1,5.8c-2.8,0-4.3-2.1-4.3-5.8
		V21.8z M147.6,17.8c-1-2.3-2.9-3.6-5.7-3.6c-3.4,0-6.8,2.5-6.8,7.9v0c0,5.4,2.7,8.8,6.8,8.8c2.8,0,4.8-1.3,5.7-3.8
		c0.1,0.8,0.2,1.6,0.3,2.1c0.1,0.4,0.2,0.8,0.3,1.2l0,0.1h2.3V8.2h-3V17.8z"/>
	<path class="st0" d="M118.3,22.3v2.1c0,2.9-2,4.5-3.9,4.5c-1.8,0-2.7-0.8-2.7-2.3v-0.2c0-1.3,0.9-1.8,3.8-2.9
		C116.5,23.3,117.6,22.9,118.3,22.3 M121.4,30.1c0-0.1,0-0.3,0-0.4c0-0.6,0-1.6,0-3.3v-6.1c0-3.9-2.1-6-6-6c-3.3,0-5,1.5-5.6,2.2
		l0,0v2.3l0.2-0.2c0.8-0.7,2.9-1.7,5.1-1.7c2.2,0,3.4,0.9,3.4,2.4v0.1c0,1.3-0.6,1.7-3.1,2.3l-0.2,0.1c-3.3,0.8-6.3,1.5-6.3,5v0
		c0,2.7,1.9,4.4,4.8,4.4c2.4,0,4.1-1.1,4.9-3c0.1,0.6,0.2,1.2,0.3,1.5c0.1,0.3,0.2,0.6,0.3,0.9l0,0.1h2.4l0-0.1
		C121.4,30.4,121.4,30.3,121.4,30.1"/>
	<path class="st0" d="M100.6,14.2c-2.7,0-4.8,1.5-5.6,3.9c0-0.8-0.2-1.6-0.3-2.2c-0.1-0.5-0.2-0.8-0.3-1.2l0-0.1H92v16.1h3v-8.9
		c0-3,1.9-5,4.8-5c2,0,3,0.8,3,2.5v11.3h3V19.8C105.8,16.2,103.9,14.2,100.6,14.2"/>
	<path class="st0" d="M132.2,14.4c-1.5,0-3.3,1.1-4.2,4.2c0-1-0.2-1.9-0.3-2.6c-0.1-0.5-0.2-0.8-0.3-1.2l0-0.1H125v16.1h3v-6.9
		c0-4.7,1.7-6.6,5.7-6.6h0.1v-2.1l0,0C133.6,14.7,133.3,14.4,132.2,14.4"/>
	<path class="st0" d="M2.5,2.2v35.5H38V2.2H2.5z M28.9,8.2c0.6-1.1,1.8-1.6,2.5-1.1c0.7,0.5,0.8,1.7,0.1,2.8
		c-0.7,1.1-1.8,1.6-2.5,1.1C28.3,10.5,28.2,9.2,28.9,8.2z M20.2,7.3c0.7,0,1.3,0.8,1.3,1.9c0,1-0.6,1.9-1.3,1.9
		c-0.7,0-1.3-0.8-1.3-1.9C18.8,8.2,19.4,7.3,20.2,7.3z M9,7.1c0.7-0.5,1.9,0,2.5,1.1c0.7,1.1,0.6,2.3-0.1,2.8
		c-0.7,0.5-1.9,0-2.5-1.1C8.2,8.8,8.3,7.5,9,7.1z M36.9,17.6c-0.4,0.3-0.9-0.5-1.4-1.1c-1-1.3-2.9-2.3-3.7-1.6
		c-1,0.9,0.1,2.3,0.9,4.3c0.7,1.7,0.6,3.7,0.5,5.4c-0.3,3,1.1,4,0.3,4.5c-0.8,0.5-2.2-1.9-2.5-4.9c-0.2-1.5-0.1-3-0.7-3
		c-0.7,0-0.7,2.9-0.5,4.4c0.4,2.8,1.9,4.2,1.6,7.1c-0.2,2-1.4,2.1-1.5,0.1c0-3.3-3.2-5-2.9-10.9c0.1-3.5,0.6-6.1-1.2-9.9
		c-0.3-0.7-0.9-1.9-1.3-2.9c-0.2,0.6-0.4,1.2-0.7,1.7c-0.4,0.7-2,2.8-1.3,5.7c0.3,1.4-0.2,3-0.5,4.2c-0.5,2.1,0.3,3-0.4,3.2
		c-0.7,0.2-1.3-2.1-1.2-3.8c0.1-1.1,0.4-2.1,0-2.1c-0.7-0.1-1,1.9-1,2.9c0,2,0.8,3.2,0.3,5.2c-0.4,1.7-1.4,1.6-1.2,0
		c0.4-2.8-1.7-4.5-0.6-8.8c0.8-3.1,0.8-3.2-1.3-6.6c-0.2-0.3-0.5-1.1-0.7-1.5c-0.4,1.1-0.9,2.2-1.3,2.9c-1.8,3.8-1.3,6.4-1.2,9.9
		c0.2,5.8-2.9,7.5-2.9,10.9c0,2-1.3,2-1.5-0.1c-0.3-2.9,1.2-4.3,1.6-7.1c0.2-1.4,0.2-4.4-0.5-4.4c-0.6,0-0.5,1.5-0.7,3
		c-0.3,3-1.7,5.4-2.5,4.9c-0.8-0.5,0.6-1.5,0.3-4.5c-0.2-1.7-0.2-3.7,0.5-5.4c0.8-2,1.8-3.4,0.9-4.3C7.9,14.1,6,15.2,5,16.4
		c-0.5,0.7-1,1.4-1.4,1.1c-0.6-0.4,0.7-3.1,3-4.5c2.3-1.5,3.8-0.9,6.1-2.5c1.8-1.2,2.3-2.4,2.8-3.6c0.3-0.9,0.5-1.1,0.8-1.1
		c0.2,0,0.4,0,0.4,0.9v0c0,1.3,0.9,4.7,3.6,4.7c2.9,0,3.6-3.5,3.6-4.6c0,0,0-0.1,0-0.1c0,0,0,0,0,0c0-0.8,0.2-0.9,0.4-0.9
		c0.3,0,0.4,0.3,0.8,1.1c0.5,1.3,1.1,2.4,2.8,3.6c2.3,1.6,3.8,1,6.1,2.5C36.2,14.5,37.5,17.2,36.9,17.6z"/>
</g>
</svg>
