<?xml version="1.0" encoding="utf-8"?>
<!-- Generator: Adobe Illustrator 19.2.1, SVG Export Plug-In . SVG Version: 6.00 Build 0)  -->
<svg version="1.1" id="Layer_1" xmlns="http://www.w3.org/2000/svg" xmlns:xlink="http://www.w3.org/1999/xlink" x="0px" y="0px"
	 viewBox="0 0 140 108" style="enable-background:new 0 0 140 108;" xml:space="preserve">
<style type="text/css">
	.st0{fill:#E0E0E0;}
	.st1{fill:#AE9261;}
</style>
<g>
	<g>
		<path class="st0" d="M54.3,107.5c-29.5,0-53.5-24-53.5-53.5s24-53.5,53.5-53.5s53.5,24,53.5,53.5S83.8,107.5,54.3,107.5z
			 M54.3,2.7C26,2.7,3,25.7,3,54s23,51.3,51.3,51.3s51.3-23,51.3-51.3S82.5,2.7,54.3,2.7z"/>
	</g>
	<g>
		<path class="st0" d="M101.6,91.7c-20.8,0-37.7-16.9-37.7-37.7s16.9-37.7,37.7-37.7s37.7,16.9,37.7,37.7S122.4,91.7,101.6,91.7z
			 M101.6,18.6c-19.5,0-35.4,15.9-35.4,35.4s15.9,35.4,35.4,35.4S137,73.5,137,54S121.1,18.6,101.6,18.6z"/>
	</g>
	<g>
		<path class="st1" d="M101.6,18.4c-2.9,0-6.6,0.8-9.3,1.4c8.3,9,12.8,21,12.8,34.2s-4.5,25.2-12.8,34.2c2.7,0.7,6.4,1.3,9.3,1.3
			c19.5,0,35.9-16.1,35.9-35.5C137.5,34.6,121.1,18.4,101.6,18.4z"/>
	</g>
	<g>
		<path class="st1" d="M96.5,55h-4.6v-1.1h4.6V55z M86.1,55h-4.6v-1.1h4.6V55z M75.8,55h-4.6v-1.1h4.6V55z M65.5,55h-4.6v-1.1h4.6
			V55z M55.2,55h-4.6v-1.1h4.6V55z M44.8,55h-4.6v-1.1h4.6V55z M34.5,55h-4.6v-1.1h4.6V55z M24.2,55h-4.6v-1.1h4.6V55z M13.8,55H9.3
			v-1.1h4.6V55z"/>
	</g>
</g>
</svg>
