<?xml version="1.0" encoding="utf-8"?>
<!-- Generator: Adobe Illustrator 19.2.1, SVG Export Plug-In . SVG Version: 6.00 Build 0)  -->
<svg version="1.1" id="Layer_1" xmlns="http://www.w3.org/2000/svg" xmlns:xlink="http://www.w3.org/1999/xlink" x="0px" y="0px"
	 viewBox="0 0 150 15" style="enable-background:new 0 0 150 15;" xml:space="preserve">
<style type="text/css">
	.st0{fill:#FFFFFF;}
</style>
<g>
	<path class="st0" d="M25.8,14.7L20.4,0.3h3.2l3.7,10.5l3.7-10.5h3.1l-5.4,14.5H25.8z"/>
	<path class="st0" d="M59.9,9.3v5.4h-3V0.3h6c3,0,5.1,1.6,5.1,4.6c0,2.3-1.3,3.8-3.3,4.3l3.8,5.6h-3.4l-3.6-5.4H59.9z M59.9,6.9h2.8
		c1.5,0,2.3-0.8,2.3-2c0-1.2-0.8-2-2.3-2h-2.8V6.9z"/>
	<path class="st0" d="M74.9,0.3H80c4.4,0,7.1,2.8,7.1,7.2c0,4.4-2.8,7.2-7.1,7.2h-5.1V0.3z M79.9,12.1c2.8,0,4.3-1.8,4.3-4.6
		c0-2.8-1.5-4.6-4.3-4.6h-2v9.2H79.9z"/>
	<path class="st0" d="M115.3,10.6c0.4,1.3,1.5,1.9,2.9,1.9c1.5,0,2.4-0.7,2.4-1.8c0-0.9-0.5-1.3-1.8-1.6l-2.6-0.6
		c-2.1-0.5-3.7-1.6-3.7-4c0-2.6,2.2-4.5,5.2-4.5c3.3,0,5.2,1.7,5.7,4.2h-3c-0.3-1-1.2-1.7-2.7-1.7c-1.4,0-2.3,0.7-2.3,1.7
		c0,0.8,0.5,1.3,1.6,1.6l2.6,0.6c2.4,0.5,3.8,1.9,3.8,4.1c0,2.8-2.3,4.5-5.4,4.5c-3.2,0-5.5-1.6-6-4.4H115.3z"/>
	<path class="st0" d="M140.2,0.3v2.6h-6.9v3.2h5.1v2.6h-5.1v3.4h6.9v2.7h-9.8V0.3H140.2z"/>
	<path class="st0" d="M49.9,0.3v2.6h-6.9v3.2h5.1v2.6h-5.1v3.4h6.9v2.7h-9.8V0.3H49.9z"/>
	<path class="st0" d="M9,0.2c4.1,0,7.3,3.3,7.3,7.3c0,4.1-3.2,7.3-7.3,7.3s-7.3-3.2-7.3-7.3C1.8,3.5,5,0.2,9,0.2z M9,11.9
		c2.4,0,4.4-2,4.4-4.3c0-2.4-2-4.4-4.4-4.4s-4.3,2-4.3,4.4C4.7,9.9,6.7,11.9,9,11.9z"/>
	<path class="st0" d="M99.4,0.2c4.1,0,7.3,3.3,7.3,7.3c0,4.1-3.2,7.3-7.3,7.3s-7.3-3.2-7.3-7.3C92.1,3.5,95.3,0.2,99.4,0.2z
		 M99.4,11.9c2.4,0,4.4-2,4.4-4.3c0-2.4-2-4.4-4.4-4.4S95,5.2,95,7.6C95,9.9,97,11.9,99.4,11.9z"/>
	<circle class="st0" cx="146.8" cy="13.5" r="1.4"/>
</g>
</svg>
