<?xml version="1.0" encoding="utf-8"?>
<!-- Generator: Adobe Illustrator 19.2.1, SVG Export Plug-In . SVG Version: 6.00 Build 0)  -->
<svg version="1.1" id="Layer_1" xmlns="http://www.w3.org/2000/svg" xmlns:xlink="http://www.w3.org/1999/xlink" x="0px" y="0px"
	 viewBox="0 0 125 125" style="enable-background:new 0 0 125 125;" xml:space="preserve">
<style type="text/css">
	.st0{fill:#AE9261;}
	.st1{fill:#E0E0E0;}
	.st2{fill:none;stroke:#E0E0E0;stroke-width:2;stroke-miterlimit:10;}
	.st3{fill:#35425B;}
</style>
<g>
	<g>
		<path class="st0" d="M118.7,6.3c-6.4-6.4-16.7-6.4-23.1,0c-3.2,3.2-4.8,7.4-4.8,11.5h15.9l0.5,16.3c4.2,0,8.4-1.6,11.5-4.8
			C125.1,23,125.1,12.7,118.7,6.3z"/>
	</g>
	<g>
		<path class="st1" d="M108.3,124.7H0.3v-108h108V124.7z M2.7,122.3h103.2V19.1H2.7V122.3z"/>
	</g>
	<g>
		<path class="st2" d="M48.9,38.4"/>
	</g>
	<g>
		<path class="st2" d="M57.7,38.4"/>
	</g>
	<g>
		<path class="st1" d="M107.1,35.4c-4.5,0-9-1.7-12.4-5.1c-6.8-6.8-6.8-18,0-24.8c6.8-6.8,18-6.8,24.8,0c6.8,6.8,6.8,18,0,24.8
			C116.1,33.7,111.6,35.4,107.1,35.4z M107.1,2.7c-3.9,0-7.7,1.5-10.7,4.4c-5.9,5.9-5.9,15.5,0,21.4c5.9,5.9,15.5,5.9,21.4,0
			c5.9-5.9,5.9-15.5,0-21.4C114.9,4.2,111,2.7,107.1,2.7z"/>
	</g>
	<g>
		<circle class="st3" cx="54.3" cy="70.7" r="50.1"/>
	</g>
	<g>
		<path class="st0" d="M105.9,32.9V19.1H92.1c0,0-0.1-0.3,0-2.5s16.3-1.9,16.3-1.9l0.2,17.1v1.2C108.6,32.9,107.4,33,105.9,32.9z"/>
	</g>
	<g>
		<path class="st0" d="M54.5,70.8L53.7,70l3.4-3.4l0.9,0.9L54.5,70.8z M61.3,64l-0.9-0.9l3.4-3.4l0.9,0.9L61.3,64z M68.2,57.2
			l-0.9-0.9l3.4-3.4l0.9,0.9L68.2,57.2z M75,50.4l-0.9-0.9l3.4-3.4l0.9,0.9L75,50.4z M81.8,43.6l-0.9-0.9l3.4-3.4l0.9,0.9L81.8,43.6
			z M88.6,36.8l-0.9-0.9l3.4-3.4l0.9,0.9L88.6,36.8z M95.4,29.9l-0.9-0.9l3.4-3.4l0.9,0.9L95.4,29.9z M102.3,23.1l-0.9-0.9l2.6-2.6
			l0.9,0.9L102.3,23.1z"/>
	</g>
</g>
</svg>
