<?xml version="1.0" encoding="utf-8"?>
<!-- Generator: Adobe Illustrator 19.2.1, SVG Export Plug-In . SVG Version: 6.00 Build 0)  -->
<svg version="1.1" id="Layer_1" xmlns="http://www.w3.org/2000/svg" xmlns:xlink="http://www.w3.org/1999/xlink" x="0px" y="0px"
	 viewBox="0 0 110 128" style="enable-background:new 0 0 110 128;" xml:space="preserve">
<style type="text/css">
	.st0{fill:#35425B;}
	.st1{fill:#E0E0E0;}
	.st2{fill:#AE9261;}
</style>
<g>
	<g>
		<circle class="st0" cx="54.9" cy="110" r="12.6"/>
	</g>
	<g>
		<path class="st1" d="M109.2,127.5H0.8V19.1h108.5V127.5z M3.2,125.1h103.6V21.5H3.2V125.1z"/>
	</g>
	<g>
		<rect x="34.2" y="21.3" class="st1" width="2.4" height="51.6"/>
	</g>
	<g>
		<rect x="73.4" y="21.3" class="st1" width="2.4" height="51.6"/>
	</g>
	<g>
		<path class="st1" d="M55,94.3c-11.5,0-20.8-9.3-20.8-20.8c0-11.5,9.3-20.8,20.8-20.8S75.8,62,75.8,73.5
			C75.8,84.9,66.5,94.3,55,94.3z M55,55.1c-10.1,0-18.4,8.2-18.4,18.4S44.9,91.9,55,91.9s18.4-8.2,18.4-18.4S65.1,55.1,55,55.1z"/>
	</g>
	<g>
		<path class="st1" d="M55,42.1c-11.5,0-20.8-9.3-20.8-20.8S43.5,0.5,55,0.5s20.8,9.3,20.8,20.8S66.5,42.1,55,42.1z M55,2.9
			c-10.1,0-18.4,8.2-18.4,18.4S44.9,39.7,55,39.7s18.4-8.2,18.4-18.4S65.1,2.9,55,2.9z"/>
	</g>
	<g>
		<path class="st2" d="M55.6,85.5h-1.2v-4.8h1.2V85.5z M55.6,75.8h-1.2v-4.8h1.2V75.8z M55.6,66.1h-1.2v-4.8h1.2V66.1z M55.6,56.4
			h-1.2v-4.8h1.2V56.4z M55.6,46.7h-1.2v-4.8h1.2V46.7z M55.6,37h-1.2v-4.8h1.2V37z M55.6,27.3h-1.2v-4.8h1.2V27.3z M55.6,17.7h-1.2
			v-4.8h1.2V17.7z"/>
	</g>
</g>
</svg>
