<?xml version="1.0" encoding="utf-8"?>
<!-- Generator: Adobe Illustrator 19.2.1, SVG Export Plug-In . SVG Version: 6.00 Build 0)  -->
<svg version="1.1" id="Layer_1" xmlns="http://www.w3.org/2000/svg" xmlns:xlink="http://www.w3.org/1999/xlink" x="0px" y="0px"
	 viewBox="0 0 76 36" style="enable-background:new 0 0 76 36;" xml:space="preserve">
<style type="text/css">
	.st0{fill-rule:evenodd;clip-rule:evenodd;fill:#AAADB1;}
</style>
<path class="st0" d="M35.4,19.5c-2.1,3-4.5,4.5-7,4.5c-2.3,0-4.3-1-6-2.9c-1.7-2-2.5-4.6-2.5-8c0-3.9,1.3-7.1,3.9-9.5
	c2.2-2.1,4.7-3.1,7.5-3.1c1.3,0,2.6,0.2,3.9,0.7c1.3,0.4,2.5,1.1,3.8,2c1.4-1.6,2.8-2.4,4.2-2.4c0.8,0,1.4,0.3,1.9,0.8
	C45.7,2.1,46,3,46,4.3c2.3-1.8,3.7-2.8,4.3-3.1c0.9-0.4,1.8-0.6,2.8-0.6c1.2,0,2.2,0.3,3.1,1l0-0.5h9h1.9H76V2
	c-1.1,0-1.8,0.1-2.2,0.3c-0.4,0.2-0.7,0.6-0.9,1c-0.2,0.5-0.3,1.4-0.3,2.8v8.6c0,2.4,0.1,4,0.2,4.7c0.1,0.5,0.3,0.9,0.5,1.1
	c0.2,0.2,0.6,0.3,1,0.3c0.5,0,1-0.1,1.6-0.4v1L69.6,24h-1.1V6.1c0-1.4-0.1-2.3-0.3-2.8c-0.2-0.5-0.5-0.8-0.9-1
	c-0.3-0.1-0.7-0.3-1.2-0.3c-0.5,0-0.9,0.1-1.1,0.3c-0.4,0.2-0.7,0.6-0.9,1c-0.2,0.5-0.3,1.4-0.3,2.8l0,20.2c0,2.5,0.1,4,0.2,4.6
	c0.1,0.6,0.3,1,0.5,1.2c0.3,0.2,0.6,0.3,1,0.3c0.4,0,1-0.1,1.6-0.4l0.4,0.9l-6.6,2.7h-1.1V6.1c0-1.4-0.1-2.3-0.3-2.8
	c-0.2-0.4-0.5-0.8-0.9-1c-0.4-0.2-1-0.3-1.9-0.3c0.1,0.1,0.2,0.2,0.2,0.2c1,1,1.5,2.4,1.5,4.1c0,1.1-0.2,2-0.7,2.8
	c-0.7,1.1-1.8,2.1-3.4,3.1c-1.6,1-4.4,2.1-8.2,3.5v0.9c0,2.2,0.3,3.7,1,4.6c0.7,0.8,1.7,1.2,3.1,1.2c1,0,1.8-0.3,2.4-0.8
	c0.6-0.5,0.9-1.2,0.9-1.9l-0.1-1.4c0-0.7,0.2-1.3,0.6-1.7c0.4-0.4,0.9-0.6,1.5-0.6c0.6,0,1.1,0.2,1.5,0.6c0.4,0.4,0.6,1,0.6,1.7
	c0,1.4-0.7,2.7-2.1,3.8C54,23.4,52,24,49.4,24c-2,0-3.6-0.3-4.8-1c-1-0.5-1.7-1.3-2.1-2.4c-0.3-0.7-0.4-2.1-0.4-4.3l0-7.5
	c0-2.1,0-3.4-0.1-3.9c-0.1-0.5-0.2-0.8-0.4-1c-0.2-0.2-0.4-0.2-0.6-0.2c-0.3,0-0.5,0.1-0.7,0.2C40,4,39.8,4.2,39.4,4.5l0,21.7
	c0,2.5,0.1,4.1,0.2,4.7c0.1,0.6,0.3,1,0.6,1.2c0.3,0.2,0.6,0.3,1,0.3c0.4,0,1-0.1,1.7-0.4l0.3,0.9l-6.7,2.7h-1.1V19.5L35.4,19.5z
	 M70.6,31.1c-0.8,0-1.4-0.3-1.9-0.8c-0.5-0.5-0.8-1.2-0.8-1.9c0-0.7,0.3-1.4,0.8-1.9c0.5-0.5,1.2-0.8,1.9-0.8c0.7,0,1.4,0.3,1.9,0.8
	c0.5,0.5,0.8,1.2,0.8,1.9c0,0.8-0.3,1.4-0.8,1.9C72,30.8,71.3,31.1,70.6,31.1L70.6,31.1z M15.5,19.5c-2.2,3-4.5,4.5-7,4.5
	c-2.3,0-4.3-1-6-2.9c-1.7-2-2.5-4.6-2.5-8C0,9.1,1.3,5.9,4,3.5c2.2-2.1,4.7-3.1,7.5-3.1c1.3,0,2.6,0.2,3.9,0.7
	c1.3,0.5,2.7,1.2,4.1,2.1l0,23c0,2.5,0.1,4.1,0.2,4.7c0.1,0.6,0.3,1,0.6,1.2c0.3,0.2,0.6,0.3,1,0.3c0.4,0,1-0.1,1.7-0.4l0.3,0.9
	l-6.7,2.7h-1.1V19.5L15.5,19.5z M15.5,17.9V4.7c-0.8-0.8-1.7-1.4-2.6-1.8c-0.9-0.4-1.8-0.6-2.7-0.6C8.8,2.2,7.4,3,6.1,4.6
	c-1.3,1.6-1.9,4-1.9,7c0,2.8,0.6,5,1.9,6.6c1.3,1.5,2.7,2.3,4.3,2.3c0.9,0,1.7-0.2,2.6-0.7C13.7,19.5,14.5,18.9,15.5,17.9L15.5,17.9
	z M46,5.9v8.5c2.4-1,4-1.7,4.7-2.1c1.3-0.7,2.2-1.5,2.7-2.2c0.6-0.8,0.8-1.6,0.8-2.5c0-1.2-0.3-2.1-1-2.9c-0.7-0.8-1.5-1.1-2.4-1.1
	C49.6,3.5,48,4.3,46,5.9L46,5.9z M35.4,17.9V4.7c-0.8-0.8-1.7-1.4-2.6-1.8c-0.9-0.4-1.8-0.6-2.7-0.6c-1.5,0-2.8,0.8-4.1,2.4
	c-1.3,1.6-1.9,4-1.9,7c0,2.8,0.6,5,1.9,6.6c1.3,1.5,2.7,2.3,4.3,2.3c0.9,0,1.7-0.2,2.6-0.7C33.6,19.6,34.4,18.9,35.4,17.9L35.4,17.9
	z"/>
</svg>
