<?xml version="1.0" encoding="utf-8"?>
<!-- Generator: Adobe Illustrator 19.2.1, SVG Export Plug-In . SVG Version: 6.00 Build 0)  -->
<svg version="1.1" id="Layer_1" xmlns="http://www.w3.org/2000/svg" xmlns:xlink="http://www.w3.org/1999/xlink" x="0px" y="0px"
	 viewBox="0 0 88 22" style="enable-background:new 0 0 88 22;" xml:space="preserve">
<style type="text/css">
	.st0{fill:#AAADB1;}
</style>
<g>
	<path class="st0" d="M13.6,0.8L5.1,18.8h8.3v3.1h-13l-0.1-0.4L8.8,3.5h-8V0.4h12.6L13.6,0.8z M21.8,21.8h3.3V0.4h-3.3V21.8z
		 M34.4,21.8h10.5v-3.1h-7.2v-6.5h6.5v-3h-6.5V3.5h7.2V0.4H34.4C34.4,0.4,34.4,21.8,34.4,21.8z M62.2,12.9l4.3,9h-3.6l-3.5-8
		c-0.1,0-0.3,0-0.4,0c-0.2,0-0.3,0-0.4,0c-0.2,0-0.4,0-0.7,0c-0.2,0-0.4,0-0.7,0v8h-3.3V0.5c0.7-0.1,1.3-0.1,2-0.2
		c0.8-0.1,1.4-0.1,2.3-0.1c1.3,0,2.5,0.2,3.5,0.5c0.7,0.3,1.5,0.9,2.1,1.5c0.7,0.7,1.1,1.3,1.4,2.2c0.3,0.8,0.4,1.6,0.4,2.6
		c0,1.4-0.3,2.6-0.9,3.6C64.1,11.5,63.2,12.3,62.2,12.9z M61.2,10.1c0.7-0.7,1-1.6,1-3.1c0-1.2-0.3-2.2-1-2.8
		c-0.7-0.7-1.6-1.1-2.8-1.1c-0.4,0-0.9,0-1.4,0.1V11c0.4,0.1,0.9,0.1,1.3,0.1C59.5,11.2,60.5,10.8,61.2,10.1z M80.6,0.2l7.1,21.7
		h-3.4l-1.4-4.7h-6l-1.4,4.7h-3.3l7.1-21.7C79.3,0.2,80.6,0.2,80.6,0.2z M82.1,14.4l-2.2-7.5l-2.2,7.5H82.1z"/>
</g>
</svg>
