<?xml version="1.0" encoding="utf-8"?>
<!-- Generator: Adobe Illustrator 19.2.1, SVG Export Plug-In . SVG Version: 6.00 Build 0)  -->
<svg version="1.1" id="Layer_1" xmlns="http://www.w3.org/2000/svg" xmlns:xlink="http://www.w3.org/1999/xlink" x="0px" y="0px"
	 viewBox="0 0 110 110" style="enable-background:new 0 0 110 110;" xml:space="preserve">
<style type="text/css">
	.st0{fill:#E0E0E0;}
	.st1{fill:#35425B;}
	.st2{fill:#AE9261;}
</style>
<g>
	<g>
		<rect x="2.2" y="53.7" class="st0" width="52.8" height="2.3"/>
	</g>
	<g>
		<path class="st1" d="M55,3.3v52.3l36.1,37.7c0,0,29-25,10.8-62.7C101.9,30.6,89.8,4,55,3.3z"/>
	</g>
	<g>
		<path class="st0" d="M55,109c-13.8,0-27.7-5.3-38.2-15.8c-21.1-21.1-21.1-55.4,0-76.4c21.1-21.1,55.4-21.1,76.4,0
			c21.1,21.1,21.1,55.4,0,76.4C82.7,103.7,68.8,109,55,109z M18.4,18.4c-20.2,20.2-20.2,53,0,73.1c20.2,20.2,53,20.2,73.1,0
			c20.2-20.2,20.2-53,0-73.1C71.4-1.7,38.6-1.7,18.4,18.4L18.4,18.4z"/>
	</g>
	<g>
		<path class="st2" d="M55.6,103.1h-1.2v-4.6h1.2V103.1z M55.6,93.8h-1.2v-4.6h1.2V93.8z M55.6,84.6h-1.2V80h1.2V84.6z M55.6,75.3
			h-1.2v-4.6h1.2V75.3z M55.6,66.1h-1.2v-4.6h1.2V66.1z"/>
	</g>
</g>
</svg>
