<?xml version="1.0" encoding="utf-8"?>
<!-- Generator: Adobe Illustrator 19.2.1, SVG Export Plug-In . SVG Version: 6.00 Build 0)  -->
<svg version="1.1" id="Layer_1" xmlns="http://www.w3.org/2000/svg" xmlns:xlink="http://www.w3.org/1999/xlink" x="0px" y="0px"
	 viewBox="0 0 82 50" style="enable-background:new 0 0 82 50;" xml:space="preserve">
<style type="text/css">
	.st0{fill:#AAADB2;}
</style>
<g>
	<path class="st0" d="M9.8,27.5V10.3h11.8V13h-8.8v4.5h8.6v2.7h-8.6v4.8h8.8v2.7H9.8z"/>
	<path class="st0" d="M24.3,27.5V10.3h6.4c5.4,0,9,3.6,9,8.6s-3.6,8.6-9,8.6H24.3z M36.6,18.9c0-3.3-2.1-6-5.9-6h-3.4v11.9h3.4
		C34.4,24.9,36.6,22.2,36.6,18.9z"/>
	<path class="st0" d="M41.7,18.9c0-5.4,4.1-8.9,9-8.9c3.4,0,5.6,1.6,7,3.6L55.2,15c-0.9-1.3-2.5-2.3-4.5-2.3c-3.4,0-5.9,2.6-5.9,6.2
		s2.5,6.3,5.9,6.3c1.8,0,3.3-0.8,4.1-1.6v-2.7h-5.1v-2.7h8.2v6.5c-1.7,1.9-4.1,3.1-7.1,3.1C45.8,27.9,41.7,24.3,41.7,18.9z"/>
	<path class="st0" d="M60.5,27.5V10.3h11.8V13h-8.8v4.5h8.6v2.7h-8.6v4.8h8.8v2.7H60.5z"/>
	<path class="st0" d="M39.5,49.2V36.4l-5.3,12.8h-1.3l-5.3-12.8v12.8h-3V31.9h4.3l4.7,11.3l4.7-11.3h4.3v17.2H39.5z"/>
	<path class="st0" d="M45.2,49.2V31.9h3v17.2H45.2z"/>
	<path class="st0" d="M56.1,49.2V34.6h-5.2v-2.7h13.5v2.7h-5.2v14.6H56.1z"/>
	<path class="st0" d="M78.9,49.2v-7.5h-9v7.5h-3V31.9h3V39h9v-7.1h3v17.2H78.9z"/>
	<path class="st0" d="M12.4,36.5c0-1.3,1.1-2.1,2.9-2.1c1.7,0,3.4,0.5,4.7,1.7l1.9-1.9l0-0.1c-1.6-1.6-3.8-2.4-6.5-2.4
		c-3.8,0-6.3,2.2-6.3,5c0,6.4,10.1,4.1,10.1,7.7c0,1.1-1,2.4-3.5,2.4c-2.2,0-3.9-0.9-5.1-2l-2,2c1.5,1.6,3.8,2.7,7,2.7
		c4.7,0,6.7-2.5,6.7-5.3C22.4,37.7,12.4,39.7,12.4,36.5z"/>
	<polygon class="st0" points="75.7,0.5 0,0.5 0,38.4 5.4,43.8 7.5,41.6 3,37.2 3.1,3.6 74.5,3.6 78.9,8.1 78.9,27.5 82,27.5 82,6.8 
			"/>
</g>
</svg>
