<?xml version="1.0" encoding="UTF-8"?>
<svg width="32px" height="25px" viewBox="0 0 32 25" version="1.1" xmlns="http://www.w3.org/2000/svg" xmlns:xlink="http://www.w3.org/1999/xlink">
    <!-- Generator: Sketch 57.1 (83088) - https://sketch.com -->
    <title>Group 36 Copy 2</title>
    <desc>Created with Sketch.</desc>
    <defs>
        <polygon id="path-1" points="0.0281487563 0.00259420451 10.6674063 0.00259420451 10.6674063 24.7977937 0.0281487563 24.7977937"></polygon>
        <polygon id="path-3" points="0.000506510713 0.0634218664 7.03214148 0.0634218664 7.03214148 3.32261023 0.000506510713 3.32261023"></polygon>
    </defs>
    <g id="MD-assets" stroke="none" stroke-width="1" fill="none" fill-rule="evenodd">
        <g id="Group-36-Copy-2">
            <g id="Group-35">
                <g id="Group-17" transform="translate(21.149317, 0.061062)">
                    <mask id="mask-2" fill="white">
                        <use xlink:href="#path-1"></use>
                    </mask>
                    <g id="Clip-16"></g>
                    <path d="M10.6674063,0.70014934 L10.6674063,0.0189039469 L3.50027969,0.00259420451 L3.20776975,0.712695295 L3.20776975,2.71001144 L3.20776975,3.05627981 L3.20776975,20.9995056 C3.20776975,23.0771159 2.14916237,24.122194 0.0281487563,24.1334853 L0.0281487563,24.798421 L10.6674063,24.798421 L10.6674063,24.1334853 C8.57045192,24.1334853 7.52197475,23.0896618 7.52197475,20.9995056 L7.52197475,3.81656473 C7.52197475,1.73895447 8.57045192,0.70014934 10.6674063,0.70014934" id="Fill-15" fill="#FFFFFF" mask="url(#mask-2)"></path>
                </g>
                <path d="M16.0909589,18.4702046 L16.0922252,18.46895 L8.59586668,1.73264517 C8.3438776,1.16431337 8.20585343,0.607272943 8.18179417,0.0627784665 L2.73680401,0.0740698266 L4.76158058,4.61821497 L4.76158058,4.61821497 L13.9585488,24.8247312 L15.2121629,24.8247312 L16.9684888,20.5892165 L16.0909589,18.4702046 Z" id="Fill-18" fill="#FFFFFF"></path>
                <g id="Group-22" transform="translate(0.000000, 21.536246)">
                    <mask id="mask-4" fill="white">
                        <use xlink:href="#path-3"></use>
                    </mask>
                    <g id="Clip-21"></g>
                    <path d="M3.95255635,0.0634218664 L3.11174856,0.0634218664 C2.9408012,1.83240162 1.91131817,2.72692825 0.000506510713,2.72692825 L0.000506510713,3.32286115 L7.03214148,3.32286115 L7.03214148,2.76080234 C5.13272631,2.73947421 4.11210722,1.83365621 3.95255635,0.0634218664" id="Fill-20" fill="#FFFFFF" mask="url(#mask-4)"></path>
                </g>
            </g>
        </g>
    </g>
</svg>