<?xml version="1.0" encoding="UTF-8"?>
<svg width="119px" height="20px" viewBox="0 0 119 20" version="1.1" xmlns="http://www.w3.org/2000/svg" xmlns:xlink="http://www.w3.org/1999/xlink">
    <!-- Generator: Sketch 57.1 (83088) - https://sketch.com -->
    <title>Group 35 Copy</title>
    <desc>Created with Sketch.</desc>
    <defs>
        <polygon id="path-1" points="0.9963 0.014 9.4993 0.014 9.4993 20 0.9963 20"></polygon>
        <polygon id="path-3" points="0.6037 0.014 7.3947 0.014 7.3947 4.1889 0.6037 4.1889"></polygon>
        <polygon id="path-5" points="0.953 0.7222 12.407 0.7222 12.407 11 0.953 11"></polygon>
        <polygon id="path-7" points="0.1327 0.2363 8.5357 0.2363 8.5357 20 0.1327 20"></polygon>
        <polygon id="path-9" points="0.7242 0.2365 9.1262 0.2365 9.1262 20 0.7242 20"></polygon>
        <polygon id="path-11" points="0.0004 0.4022 5.5534 0.4022 5.5534 3 0.0004 3"></polygon>
        <polygon id="path-13" points="0.5969 0.014 12.9079 0.014 12.9079 19.9997 0.5969 19.9997"></polygon>
        <polygon id="path-15" points="0.4271 0.4022 5.4951 0.4022 5.4951 3 0.4271 3"></polygon>
    </defs>
    <g id="MD-assets" stroke="none" stroke-width="1" fill="none" fill-rule="evenodd">
        <g id="Group-35-Copy" transform="translate(0.000000, -1.000000)">
            <g id="Group-3" transform="translate(97.000000, 0.986400)">
                <mask id="mask-2" fill="white">
                    <use xlink:href="#path-1"></use>
                </mask>
                <g id="Clip-2"></g>
                <path d="M6.9983,11.1395 L6.9983,16.9365 C6.9983,18.6225 7.8313,19.4645 9.4993,19.4645 L9.4843,20.0005 L0.9963,20.0005 L0.9963,19.4645 C2.6703,19.4645 3.5083,18.6225 3.5083,16.9365 L3.5083,3.0905 C3.5083,1.4065 2.6703,0.5625 0.9963,0.5625 L0.9963,0.0135 L9.4843,0.0135 L9.4843,0.5625 C7.8253,0.5625 6.9983,1.4065 6.9983,3.0905 L6.9983,10.3165 L6.9983,11.1395 Z" id="Fill-1" fill="#FFFFFF" mask="url(#mask-2)"></path>
            </g>
            <g id="Group-6" transform="translate(109.000000, 0.986400)">
                <mask id="mask-4" fill="white">
                    <use xlink:href="#path-3"></use>
                </mask>
                <g id="Clip-5"></g>
                <path d="M1.3657,0.0139 L1.3657,0.5629 C3.0427,0.5999 3.1087,1.4559 1.5707,3.1319 L0.6037,4.1889 L1.4737,4.1889 L2.4507,3.1319 C3.9157,1.6029 5.5667,0.7469 7.3947,0.5629 L7.3947,0.0139 L1.3657,0.0139 Z" id="Fill-4" fill="#FFFFFF" mask="url(#mask-4)"></path>
            </g>
            <g id="Group-9" transform="translate(106.000000, 9.986400)">
                <mask id="mask-6" fill="white">
                    <use xlink:href="#path-5"></use>
                </mask>
                <g id="Clip-8"></g>
                <path d="M8.285,7.4832 L3.603,0.7222 L0.953,3.4662 L3.89,7.4832 C4.852,8.8022 5.296,9.9752 5.223,11.0002 L12.407,11.0002 L12.407,10.4642 C11.052,10.4642 9.678,9.4702 8.285,7.4832" id="Fill-7" fill="#FFFFFF" mask="url(#mask-6)"></path>
            </g>
            <g id="Group-12" transform="translate(52.000000, 0.986400)">
                <mask id="mask-8" fill="white">
                    <use xlink:href="#path-7"></use>
                </mask>
                <g id="Clip-11"></g>
                <path d="M6.0787,17.0003 L6.0787,14.2313 L6.0787,10.4433 L6.0787,9.8463 L6.0787,0.8733 L6.0787,0.2363 L0.1327,0.2363 L0.1327,0.7923 C1.7807,0.7923 2.5987,1.6203 2.5897,3.2773 L2.5897,17.0003 C2.5897,18.6473 1.7707,19.4663 0.1327,19.4563 L0.1327,20.0003 L8.5357,20.0003 L8.5357,19.4563 C6.8877,19.4563 6.0687,18.6383 6.0787,17.0003" id="Fill-10" fill="#FFFFFF" mask="url(#mask-8)"></path>
            </g>
            <path d="M65.4289,18.3886 L69.5669,18.3886 C69.2719,17.9646 68.9869,17.4816 68.7119,16.9276 L66.8529,13.2076 C66.2559,12.0226 65.3999,11.3986 64.2869,11.3346 C65.7349,11.1176 66.9209,10.5466 67.8439,9.6236 C68.7849,8.6836 69.2549,7.5836 69.2549,6.3256 C69.2549,4.9526 68.6929,3.7796 67.5879,2.7996 L63.7609,2.7996 C63.9159,2.9046 64.0639,3.0166 64.2049,3.1426 C65.1649,3.9976 65.6449,5.0676 65.6449,6.3526 C65.6449,7.6286 65.1649,8.6946 64.2049,9.5496 C63.2459,10.4046 62.0069,10.8326 60.4859,10.8326 L59.4239,10.8326 L59.4239,11.4296 L59.7539,11.4296 C60.6669,11.4296 61.3999,11.6156 61.9529,11.9856 C62.5499,12.3846 62.9969,12.9006 63.2959,13.5336 L65.0199,17.4026 C65.1769,17.7506 65.3089,18.0756 65.4289,18.3886" id="Fill-13" fill="#FFFFFF"></path>
            <g id="Group-17" transform="translate(16.000000, 0.986400)">
                <mask id="mask-10" fill="white">
                    <use xlink:href="#path-9"></use>
                </mask>
                <g id="Clip-16"></g>
                <path d="M9.1262,0.7925 L9.1262,0.2495 L3.4662,0.2365 L3.2352,0.8025 L3.2352,2.3945 L3.2352,2.6705 L3.2352,16.9725 C3.2352,18.6285 2.3992,19.4615 0.7242,19.4705 L0.7242,20.0005 L9.1262,20.0005 L9.1262,19.4705 C7.4702,19.4705 6.6422,18.6385 6.6422,16.9725 L6.6422,3.2765 C6.6422,1.6205 7.4702,0.7925 9.1262,0.7925" id="Fill-15" fill="#FFFFFF" mask="url(#mask-10)"></path>
            </g>
            <path d="M12.7073,15.8942 L12.7083,15.8932 L6.7883,2.5532 C6.5893,2.1002 6.4803,1.6562 6.4613,1.2222 L2.1613,1.2312 L3.7603,4.8532 L3.7603,4.8532 L11.0233,20.9592 L12.0133,20.9592 L13.4003,17.5832 L12.7073,15.8942 Z" id="Fill-18" fill="#FFFFFF"></path>
            <g id="Group-22" transform="translate(0.000000, 17.986400)">
                <mask id="mask-12" fill="white">
                    <use xlink:href="#path-11"></use>
                </mask>
                <g id="Clip-21"></g>
                <path d="M3.1214,0.4022 L2.4574,0.4022 C2.3224,1.8122 1.5094,2.5252 0.0004,2.5252 L0.0004,3.0002 L5.5534,3.0002 L5.5534,2.5522 C4.0534,2.5352 3.2474,1.8132 3.1214,0.4022" id="Fill-20" fill="#FFFFFF" mask="url(#mask-12)"></path>
            </g>
            <g id="Group-25" transform="translate(36.000000, 0.986400)">
                <mask id="mask-14" fill="white">
                    <use xlink:href="#path-13"></use>
                </mask>
                <g id="Clip-24"></g>
                <path d="M0.5969,3.5237 L1.9319,0.0137 L2.8649,0.0137 L10.0229,17.2387 C10.6289,18.6407 11.5899,19.3597 12.9079,19.3957 L12.9079,19.9997 L4.6939,19.9997 L4.6939,19.3957 C6.2509,19.4137 6.7359,18.6947 6.1509,17.2387 L4.5829,13.3647 L0.5969,3.5237 Z" id="Fill-23" fill="#FFFFFF" mask="url(#mask-14)"></path>
            </g>
            <g id="Group-28" transform="translate(28.000000, 17.986400)">
                <mask id="mask-16" fill="white">
                    <use xlink:href="#path-15"></use>
                </mask>
                <g id="Clip-27"></g>
                <path d="M3.9721,0.4022 L3.3061,0.4022 C2.7291,1.7532 1.7711,2.4222 0.4271,2.3962 L0.4271,3.0002 L5.4951,3.0002 L5.4951,2.3962 C4.0021,2.3962 3.5001,1.7262 3.9721,0.4022" id="Fill-26" fill="#FFFFFF" mask="url(#mask-16)"></path>
            </g>
            <path d="M92.5071,15.3122 C92.3311,18.4922 90.4291,20.1782 86.8461,20.4102 L81.5411,20.4262 L81.5411,17.1822 C81.5411,17.1692 81.5381,17.1582 81.5381,17.1452 L81.5381,11.6302 L81.5381,10.6702 L81.5381,10.0592 L81.5381,9.0352 L81.5381,1.8332 L81.5411,1.8332 L81.5411,1.2352 L75.6061,1.2352 L75.6061,1.7782 C77.2631,1.7512 78.0861,2.5792 78.0781,4.2632 L78.0781,17.9862 C78.0781,19.5882 77.2541,20.4072 75.6061,20.4432 L75.6061,20.9862 L81.1761,20.9862 L81.5411,20.9862 L92.6561,20.9862 L92.9951,15.3532 L92.5071,15.3122 Z" id="Fill-29" fill="#FFFFFF"></path>
            <path d="M85.243,7.0998 C85.243,9.0728 84.279,10.0588 82.351,10.0588 L81.176,10.0588 L81.176,10.6698 L82.351,10.6698 C84.279,10.6698 85.243,11.6748 85.243,13.6838 L85.772,13.6838 L85.772,7.0998 L85.243,7.0998 Z" id="Fill-31" fill="#FFFFFF"></path>
            <path d="M86.8464,1.8549 C89.5594,1.9689 91.0214,3.3499 91.2034,6.0279 L91.7334,5.9459 L91.4354,1.2359 L86.8464,1.2359 L86.8464,1.8549 Z" id="Fill-33" fill="#FFFFFF"></path>
        </g>
    </g>
</svg>